<svg width="34" height="34" viewBox="0 0 34 34" fill="none" xmlns="http://www.w3.org/2000/svg">
<path d="M17 12.7502C15.8728 12.7502 14.7918 13.1979 13.9948 13.995C13.1977 14.792 12.75 15.873 12.75 17.0002C12.75 18.1273 13.1977 19.2083 13.9948 20.0054C14.7918 20.8024 15.8728 21.2502 17 21.2502C18.1272 21.2502 19.2082 20.8024 20.0052 20.0054C20.8022 19.2083 21.25 18.1273 21.25 17.0002C21.25 15.873 20.8022 14.792 20.0052 13.995C19.2082 13.1979 18.1272 12.7502 17 12.7502ZM17 9.91683C18.8786 9.91683 20.6803 10.6631 22.0087 11.9915C23.337 13.3199 24.0833 15.1215 24.0833 17.0002C24.0833 18.8788 23.337 20.6805 22.0087 22.0088C20.6803 23.3372 18.8786 24.0835 17 24.0835C15.1214 24.0835 13.3197 23.3372 11.9913 22.0088C10.6629 20.6805 9.91665 18.8788 9.91665 17.0002C9.91665 15.1215 10.6629 13.3199 11.9913 11.9915C13.3197 10.6631 15.1214 9.91683 17 9.91683V9.91683ZM26.2083 9.56266C26.2083 10.0323 26.0217 10.4827 25.6897 10.8148C25.3576 11.1469 24.9071 11.3335 24.4375 11.3335C23.9678 11.3335 23.5174 11.1469 23.1853 10.8148C22.8532 10.4827 22.6666 10.0323 22.6666 9.56266C22.6666 9.09301 22.8532 8.64259 23.1853 8.31049C23.5174 7.9784 23.9678 7.79183 24.4375 7.79183C24.9071 7.79183 25.3576 7.9784 25.6897 8.31049C26.0217 8.64259 26.2083 9.09301 26.2083 9.56266V9.56266ZM17 5.66683C13.4951 5.66683 12.9228 5.67675 11.2922 5.749C10.1816 5.80141 9.4364 5.95016 8.74506 6.21933C8.13023 6.45733 7.68681 6.74208 7.21506 7.21525C6.77166 7.64364 6.43073 8.16666 6.21773 8.74525C5.94856 9.43941 5.79981 10.1832 5.74881 11.2924C5.67515 12.8564 5.66665 13.4032 5.66665 17.0002C5.66665 20.505 5.67656 21.0773 5.74881 22.7079C5.80123 23.8172 5.94998 24.5637 6.21773 25.2537C6.45856 25.8699 6.7419 26.3133 7.21223 26.7837C7.68965 27.2597 8.13306 27.5444 8.74223 27.7796C9.44206 28.0502 10.1872 28.2003 11.2922 28.2513C12.8562 28.325 13.4031 28.3335 17 28.3335C20.5048 28.3335 21.0771 28.3236 22.7077 28.2513C23.8156 28.1989 24.5621 28.0502 25.2535 27.7824C25.8669 27.543 26.3131 27.2582 26.7835 26.7879C27.2609 26.3105 27.5456 25.8671 27.7808 25.2579C28.05 24.5595 28.2001 23.8129 28.2511 22.7079C28.3248 21.1439 28.3333 20.5971 28.3333 17.0002C28.3333 13.4953 28.3234 12.923 28.2511 11.2924C28.1987 10.1846 28.05 9.43658 27.7808 8.74525C27.5673 8.16725 27.227 7.64444 26.7849 7.21525C26.3567 6.77161 25.8336 6.43065 25.2549 6.21791C24.5607 5.94875 23.8156 5.8 22.7077 5.749C21.1437 5.67533 20.5969 5.66683 17 5.66683ZM17 2.8335C20.8491 2.8335 21.3293 2.84766 22.8395 2.9185C24.3482 2.98933 25.3753 3.22591 26.2791 3.57725C27.2141 3.93708 28.0018 4.42441 28.7895 5.21066C29.5098 5.91885 30.0672 6.7755 30.4229 7.721C30.7728 8.62341 31.0108 9.65191 31.0816 11.1607C31.1482 12.6708 31.1666 13.1511 31.1666 17.0002C31.1666 20.8492 31.1525 21.3295 31.0816 22.8397C31.0108 24.3484 30.7728 25.3755 30.4229 26.2793C30.0683 27.2253 29.5107 28.0822 28.7895 28.7897C28.0811 29.5098 27.2245 30.0671 26.2791 30.4231C25.3767 30.773 24.3482 31.011 22.8395 31.0818C21.3293 31.1484 20.8491 31.1668 17 31.1668C13.1509 31.1668 12.6706 31.1527 11.1605 31.0818C9.65173 31.011 8.62465 30.773 7.72081 30.4231C6.77494 30.0682 5.91814 29.5107 5.21048 28.7897C4.48997 28.0816 3.93255 27.2249 3.57706 26.2793C3.22573 25.3769 2.98915 24.3484 2.91831 22.8397C2.85173 21.3295 2.83331 20.8492 2.83331 17.0002C2.83331 13.1511 2.84748 12.6708 2.91831 11.1607C2.98915 9.6505 3.22573 8.62483 3.57706 7.721C3.93156 6.77492 4.48912 5.91803 5.21048 5.21066C5.91835 4.48991 6.77509 3.93245 7.72081 3.57725C8.62465 3.22591 9.65031 2.98933 11.1605 2.9185C12.6706 2.85191 13.1509 2.8335 17 2.8335Z" fill="white"/>
</svg>
