<svg width="34" height="34" viewBox="0 0 34 34" fill="none" xmlns="http://www.w3.org/2000/svg">
<path d="M25.9746 25.9803H22.1992V20.0628C22.1992 18.6518 22.1708 16.8357 20.23 16.8357C18.2622 16.8357 17.9619 18.3713 17.9619 19.9594V25.9803H14.1851V13.8125H17.8117V15.47H17.8613C18.3685 14.5152 19.601 13.5051 21.4427 13.5051C25.2677 13.5051 25.976 16.0239 25.976 19.3007V25.9803H25.9746ZM9.92092 12.1479C9.6327 12.1483 9.34725 12.0918 9.08092 11.9816C8.81459 11.8714 8.57263 11.7098 8.3689 11.5059C8.16517 11.3021 8.00367 11.06 7.89368 10.7936C7.78369 10.5272 7.72736 10.2417 7.72792 9.9535C7.7282 9.51977 7.85709 9.09585 8.09829 8.73537C8.33949 8.37489 8.68218 8.09403 9.083 7.92831C9.48383 7.76258 9.92479 7.71944 10.3501 7.80433C10.7755 7.88922 11.1661 8.09834 11.4726 8.40523C11.7791 8.71213 11.9877 9.10302 12.0721 9.52847C12.1564 9.95393 12.1127 10.3948 11.9464 10.7955C11.7802 11.1961 11.4989 11.5384 11.1381 11.7791C10.7773 12.0199 10.3532 12.1482 9.9195 12.1479H9.92092ZM11.8136 25.9803H8.02683V13.8125H11.815V25.9803H11.8136ZM27.8658 4.25H6.13275C5.09008 4.25 4.25 5.07167 4.25 6.08742V27.9126C4.25 28.9283 5.0915 29.75 6.13133 29.75H27.8602C28.9 29.75 29.75 28.9283 29.75 27.9126V6.08742C29.75 5.07167 28.9 4.25 27.8602 4.25H27.8644H27.8658Z" fill="white"/>
</svg>
