<svg width="120" height="120" viewBox="0 0 120 120" fill="none" xmlns="http://www.w3.org/2000/svg">
<path d="M115.178 71.65C115.595 70.6 115.964 69.4942 116.283 68.3363C119.943 55.0857 114.409 39.2103 102.755 35.3783C101.495 15.9654 90.376 2.64547 77.8188 0.373749C63.445 -2.22708 50.2786 8.97699 45.8971 26.7831C40.6164 24.4873 35.4715 24.7672 30.6219 28.2447C28.4219 29.4931 26.4087 31.3345 24.604 33.7581C21.9533 37.3156 20.229 41.8071 19.5275 46.5411C18.4883 46.7423 17.4665 46.9435 16.5033 47.3658C10.8882 49.8374 7.34494 54.9231 6.37308 62.5844C5.76824 67.3543 6.98877 72.1123 7.66962 74.035C10.3594 81.6322 16.5967 85.9385 22.9328 84.7993C23.2488 84.7434 23.707 84.9166 23.9785 85.1964C24.313 97.3398 29.118 108.079 36.3261 114.213C47.8918 124.057 62.7728 121.026 72.1603 107.526C76.1824 112.574 80.9689 115.027 86.5927 114.137C92.185 113.251 96.5264 109.466 99.695 103.309C101.158 103.791 102.545 104.487 103.98 104.68C109.598 105.434 114.122 102.661 117.507 96.4937C117.622 96.2819 117.789 96.1206 117.931 95.9341C118.416 94.5737 118.899 93.212 119.383 91.8517C119.598 89.7865 119.979 87.7186 119.999 85.6574C120.053 80.104 118.203 75.0422 115.178 71.65Z" fill="#C8EDE6"/>
<path d="M48.6031 33.9114C48.6031 33.9114 64.8533 33.9114 64.9521 33.9114C68.7049 33.9114 71.7454 30.1793 71.7454 25.5746C71.7454 21.5575 69.4303 18.2052 66.3475 17.415C66.3833 17.0633 66.4072 16.7075 66.4072 16.3438C66.4072 11.5752 63.256 7.70992 59.3696 7.70992C57.0751 7.70992 55.0434 9.06362 53.7588 11.1488C53.4309 5.84057 49.5652 1.7448 45.0435 2.42432C41.737 2.91997 39.0028 6.05642 38.3947 10.0749C38.2003 11.3647 38.2188 12.6144 38.4142 13.7869C37.527 12.6158 36.2652 11.879 34.8601 11.879C32.2887 11.879 30.1886 14.3372 30.0225 17.4404C28.8552 17.1233 27.5847 17.1432 26.2469 17.7615C23.6885 18.9393 21.8686 21.8932 21.7611 25.2428C21.6091 29.9995 24.7082 33.9154 28.5511 33.9154C28.8432 33.9154 29.8683 33.9154 30.105 33.9154H44.2139" fill="#FDFCEF"/>
<path d="M64.9521 34.7641H48.6031C48.2198 34.7641 47.9081 34.383 47.9081 33.9114C47.9081 33.441 48.2198 33.0586 48.6031 33.0586H64.9521C68.3151 33.0586 71.0526 29.701 71.0526 25.5746C71.0526 22.0504 69.0144 18.9686 66.2074 18.2491C65.8523 18.1585 65.6145 17.7495 65.659 17.3071C65.6916 16.99 65.7133 16.6702 65.7133 16.3438C65.7133 12.0508 62.8683 8.56263 59.3729 8.56263C57.3738 8.56263 55.5299 9.6925 54.3159 11.6631C54.1422 11.9456 53.8468 12.0668 53.5656 11.9656C53.2887 11.8656 53.0899 11.5672 53.0693 11.2141C52.9249 8.86509 51.9867 6.65865 50.4979 5.16104C48.9929 3.64745 47.0839 2.97459 45.1326 3.27038C42.1225 3.72339 39.6348 6.58403 39.082 10.2295C38.9105 11.3673 38.9159 12.5065 39.1005 13.6164C39.1613 13.9921 39.0147 14.3705 38.7367 14.5451C38.4587 14.7223 38.121 14.6477 37.9093 14.3679C37.1101 13.3139 36.0285 12.7317 34.8656 12.7317C32.6851 12.7317 30.8652 14.8262 30.7218 17.4963C30.7077 17.7455 30.6078 17.9733 30.4449 18.1212C30.2831 18.2731 30.0725 18.3264 29.8781 18.2731C28.7097 17.9573 27.6032 18.0479 26.4967 18.5582C24.1772 19.6268 22.556 22.3249 22.4615 25.2735C22.3964 27.332 22.999 29.2813 24.1587 30.7616C25.3196 32.2445 26.8821 33.0613 28.5566 33.0613H44.2194C44.6038 33.0613 44.9143 33.4424 44.9143 33.914C44.9143 34.3844 44.6038 34.7668 44.2194 34.7668H28.5533C26.4977 34.7668 24.5812 33.7635 23.1554 31.9461C21.7307 30.1274 20.9901 27.7344 21.0705 25.2095C21.1856 21.5828 23.1695 18.2691 26.0047 16.9634C27.1167 16.4504 28.2645 16.2838 29.4351 16.4531C29.9584 13.3459 32.2117 11.0262 34.8623 11.0262C35.8135 11.0262 36.7441 11.334 37.5651 11.8963C37.5651 11.2381 37.6128 10.5799 37.7117 9.91901C38.3751 5.5501 41.3548 2.12053 44.9599 1.57824C47.2946 1.22916 49.5749 2.03126 51.3764 3.84331C52.7707 5.24631 53.761 7.17029 54.2095 9.28879C55.6157 7.72589 57.4324 6.85717 59.3718 6.85717C63.6339 6.85717 67.1022 11.1128 67.1022 16.3438C67.1022 16.485 67.0989 16.6276 67.0924 16.7675C70.2252 17.9147 72.4404 21.5015 72.4404 25.5746C72.4426 30.6443 69.0828 34.7641 64.9521 34.7641Z" fill="#472B29"/>
<path d="M44.6657 15.547C42.1529 15.3445 39.9888 17.475 39.8346 20.3036C39.815 20.6554 39.827 21.0018 39.8693 21.3376C39.3839 20.6661 38.6673 20.2104 37.8431 20.1438C36.3348 20.0225 35.0317 21.2443 34.8428 22.9071C34.5691 22.8139 34.2835 22.7526 33.9871 22.7286C31.7882 22.5514 29.8955 24.4154 29.7587 26.8923" fill="#FDFCEF"/>
<path d="M29.7597 27.3174C29.7521 27.3174 29.7434 27.3174 29.7369 27.3147C29.5447 27.3 29.4003 27.0975 29.4123 26.8617C29.561 24.1556 31.6199 22.105 34.011 22.3009C34.201 22.3169 34.3899 22.3449 34.5789 22.3915C34.96 20.7407 36.325 19.5855 37.868 19.7187C38.4587 19.7654 39.0115 19.9905 39.486 20.3703C39.486 20.3383 39.4882 20.3077 39.4893 20.2757C39.6565 17.2138 41.9738 14.8862 44.6906 15.1233C44.8828 15.138 45.0273 15.3418 45.0142 15.5763C45.0023 15.8122 44.8427 16.012 44.645 15.9721C42.3506 15.7935 40.3254 17.7401 40.1831 20.333C40.1668 20.6474 40.1777 20.9645 40.2157 21.2763C40.2385 21.4615 40.1582 21.6467 40.0192 21.7266C39.8802 21.8066 39.7151 21.764 39.612 21.6227C39.1635 21.0005 38.5282 20.6261 37.8235 20.5701C36.5009 20.5115 35.3564 21.5188 35.1902 22.9644C35.1772 23.0857 35.1207 23.1949 35.0382 23.2629C34.9546 23.3295 34.8525 23.3495 34.7537 23.3175C34.4942 23.2309 34.2303 23.1763 33.9664 23.1523C31.9641 22.9951 30.231 24.6806 30.1094 26.919C30.0942 27.1441 29.9411 27.3174 29.7597 27.3174Z" fill="#472B29"/>
<path d="M67.7038 18.3917C65.342 17.026 62.611 17.9933 61.6033 20.5528C61.4784 20.8699 61.385 21.199 61.3242 21.5321" fill="#FDFCEF"/>
<path d="M61.3242 21.9585C61.2992 21.9585 61.2731 21.9545 61.246 21.9478C61.0603 21.8959 60.9419 21.6667 60.9854 21.4362C61.0527 21.0658 61.1559 20.7061 61.2894 20.3676C62.3775 17.6029 65.3224 16.549 67.8514 18.0053C68.0252 18.1079 68.1001 18.3597 68.0176 18.5729C67.9361 18.7874 67.7276 18.8727 67.555 18.7781C65.3669 17.5083 62.8379 18.3904 61.9149 20.7367C61.8041 21.0192 61.7183 21.3176 61.6619 21.6254C61.626 21.8253 61.4827 21.9585 61.3242 21.9585Z" fill="#472B29"/>
<path d="M14.6366 74.1215H0.694966C0.311649 74.1215 0 73.7391 0 73.2688C0 72.7985 0.311649 72.4161 0.694966 72.4161H14.6366C15.0199 72.4161 15.3316 72.7985 15.3316 73.2688C15.3316 73.7391 15.021 74.1215 14.6366 74.1215ZM19.3352 73.2688C19.3352 72.7985 19.0247 72.4161 18.6403 72.4161H16.6314C16.247 72.4161 15.9364 72.7985 15.9364 73.2688C15.9364 73.7391 16.247 74.1215 16.6314 74.1215H18.6403C19.0258 74.1215 19.3352 73.7391 19.3352 73.2688ZM24.9721 73.2688C24.9721 72.7985 24.6604 72.4161 24.2771 72.4161H20.7382C20.3549 72.4161 20.0432 72.7985 20.0432 73.2688C20.0432 73.7391 20.3549 74.1215 20.7382 74.1215H24.2771C24.6615 74.1215 24.9721 73.7391 24.9721 73.2688ZM24.9721 76.6797C24.9721 76.2094 24.6604 75.827 24.2771 75.827H10.911C10.5276 75.827 10.216 76.2094 10.216 76.6797C10.216 77.1501 10.5276 77.5325 10.911 77.5325H24.2771C24.6615 77.5325 24.9721 77.1501 24.9721 76.6797ZM9.19852 76.6797C9.19852 76.2094 8.88796 75.827 8.50356 75.827H7.69783C7.31451 75.827 7.00286 76.2094 7.00286 76.6797C7.00286 77.1501 7.31451 77.5325 7.69783 77.5325H8.50356C8.88796 77.5325 9.19852 77.1501 9.19852 76.6797ZM5.89635 76.6797C5.89635 76.2094 5.5847 75.827 5.20138 75.827H3.17621C2.79289 75.827 2.48124 76.2094 2.48124 76.6797C2.48124 77.1501 2.79289 77.5325 3.17621 77.5325H5.20138C5.5847 77.5325 5.89635 77.1501 5.89635 76.6797ZM18.5936 69.8579C18.5936 69.3876 18.2819 69.0052 17.8986 69.0052H10.911C10.5276 69.0052 10.216 69.3876 10.216 69.8579C10.216 70.3282 10.5276 70.7106 10.911 70.7106H17.8986C18.283 70.7106 18.5936 70.3282 18.5936 69.8579ZM18.5936 66.447C18.5936 65.9766 18.2819 65.5942 17.8986 65.5942H16.1514C15.7681 65.5942 15.4565 65.9766 15.4565 66.447C15.4565 66.9173 15.7681 67.2997 16.1514 67.2997H17.8986C18.283 67.2997 18.5936 66.9173 18.5936 66.447ZM14.0502 80.0906C14.0502 79.6203 13.7386 79.2379 13.3553 79.2379H10.911C10.5276 79.2379 10.216 79.6203 10.216 80.0906C10.216 80.561 10.5276 80.9434 10.911 80.9434H13.3553C13.7397 80.9434 14.0502 80.561 14.0502 80.0906Z" fill="white"/>
<path d="M95.0365 21.2523H81.0959C80.7126 21.2523 80.401 20.8699 80.401 20.3995C80.401 19.9292 80.7126 19.5468 81.0959 19.5468H95.0387C95.422 19.5468 95.7336 19.9292 95.7336 20.3995C95.7336 20.8699 95.422 21.2523 95.0365 21.2523ZM99.7362 20.3995C99.7362 19.9292 99.4246 19.5468 99.0412 19.5468H97.0313C96.648 19.5468 96.3363 19.9292 96.3363 20.3995C96.3363 20.8699 96.648 21.2523 97.0313 21.2523H99.0412C99.4267 21.2523 99.7362 20.8699 99.7362 20.3995ZM105.372 20.3995C105.372 19.9292 105.061 19.5468 104.677 19.5468H101.139C100.755 19.5468 100.444 19.9292 100.444 20.3995C100.444 20.8699 100.755 21.2523 101.139 21.2523H104.677C105.061 21.2523 105.372 20.8699 105.372 20.3995ZM102.556 13.5777C102.556 13.1074 102.245 12.725 101.861 12.725H88.4962C88.1118 12.725 87.8013 13.1074 87.8013 13.5777C87.8013 14.048 88.1118 14.4304 88.4962 14.4304H101.861C102.245 14.4304 102.556 14.048 102.556 13.5777ZM86.7838 13.5777C86.7838 13.1074 86.4721 12.725 86.0888 12.725H85.282C84.8987 12.725 84.587 13.1074 84.587 13.5777C84.587 14.048 84.8987 14.4304 85.282 14.4304H86.0888C86.4732 14.4304 86.7838 14.048 86.7838 13.5777ZM83.4794 13.5777C83.4794 13.1074 83.1678 12.725 82.7845 12.725H80.7604C80.3771 12.725 80.0654 13.1074 80.0654 13.5777C80.0654 14.048 80.3771 14.4304 80.7604 14.4304H82.7845C83.17 14.4304 83.4794 14.048 83.4794 13.5777ZM98.9935 16.9886C98.9935 16.5183 98.6829 16.1359 98.2985 16.1359H91.3119C90.9286 16.1359 90.617 16.5183 90.617 16.9886C90.617 17.459 90.9286 17.8414 91.3119 17.8414H98.2985C98.6829 17.8414 98.9935 17.459 98.9935 16.9886ZM98.9935 13.5777C98.9935 13.1074 98.6829 12.725 98.2985 12.725H96.5524C96.168 12.725 95.8574 13.1074 95.8574 13.5777C95.8574 14.048 96.168 14.4304 96.5524 14.4304H98.2985C98.6829 14.4304 98.9935 14.048 98.9935 13.5777ZM89.9828 16.9886C89.9828 16.5183 89.6722 16.1359 89.2878 16.1359H86.8446C86.4613 16.1359 86.1496 16.5183 86.1496 16.9886C86.1496 17.459 86.4613 17.8414 86.8446 17.8414H89.2878C89.6733 17.8414 89.9828 17.459 89.9828 16.9886Z" fill="white"/>
<path d="M31.5536 74.961L31.3896 74.5C30.7229 72.119 30.8597 69.8233 31.8348 67.5729L36.6268 59.0416L34.3954 57.3401C34.252 57.2322 34.2444 57.075 34.264 56.9617C34.2813 56.8498 34.3389 56.7099 34.505 56.6793C34.505 56.6793 46.5822 54.3995 46.5866 54.3995C46.7451 54.3995 46.8504 54.4915 46.8928 54.626L51.6207 69.722C51.6446 69.798 51.6685 69.9139 51.5968 70.0418C51.5393 70.1457 51.4394 70.2163 51.3471 70.2163C51.2971 70.2163 51.2472 70.195 51.1929 70.1564L48.9495 68.4456L41.8119 81.4244L34.8406 82.4304L31.5536 74.961Z" fill="#2ECC71"/>
<path d="M46.7245 55.5827H46.7311H46.7245ZM46.1827 55.6853L49.9876 67.83L48.6704 66.824L47.6204 68.7307L41.2582 80.3038L35.3857 81.1512L32.4441 74.4733L32.3702 74.2681L32.3116 74.1096C31.7502 72.0443 31.8599 70.1244 32.6461 68.2457L36.8506 60.7497L38.0049 58.6885L36.4695 57.5173L46.1827 55.6853ZM46.6214 53.2043C46.5573 53.2043 46.4922 53.2097 46.4281 53.223L34.3596 55.5014C33.1977 55.7199 32.885 57.5946 33.884 58.3567L35.2489 59.396L30.9792 67.0132C29.8542 69.6074 29.737 72.2655 30.5014 74.9823C30.5666 75.1635 30.6328 75.3473 30.7002 75.5285L34.302 83.7134L42.3734 82.5476L49.2362 70.0671L50.6826 71.1716C50.9008 71.3382 51.13 71.4115 51.3515 71.4115C52.1702 71.4115 52.8761 70.3895 52.5329 69.293L47.8039 54.1996C47.6128 53.5934 47.1383 53.2043 46.6214 53.2043Z" fill="#472B29"/>
<path d="M45.8449 100.19C43.7318 100.19 41.8054 98.7495 40.8162 96.4364L33.2378 78.7076C35.0045 79.9694 36.9624 80.8275 39.6879 80.8275H59.3902C59.5455 80.8275 59.6715 80.99 59.6715 81.1872V99.83C59.6715 100.027 59.5455 100.19 59.3902 100.19H45.8449Z" fill="#2ECC71"/>
<path d="M35.4118 81.2259C36.6486 81.7242 38.0418 82.0226 39.6869 82.0226H58.6985V98.996H45.8449C44.0945 98.996 42.4972 97.8021 41.6762 95.8822L35.4118 81.2259ZM30.5427 74.9743L39.9529 96.9907C41.1072 99.6915 43.3746 101.384 45.8449 101.384H59.3903C60.083 101.384 60.6444 100.688 60.6444 99.83V81.1886C60.6444 80.3305 60.083 79.635 59.3903 79.635H39.688C35.5594 79.635 33.3106 77.4939 30.5427 74.9743Z" fill="#472B29"/>
<path d="M72.7662 103.626C72.6804 103.626 72.612 103.583 72.5501 103.49L64.9228 91.9316C64.8359 91.8024 64.8349 91.6105 64.9217 91.4799L73.3145 78.6303C73.3775 78.5371 73.447 78.4944 73.5328 78.4944C73.536 78.4944 73.8336 78.4971 73.8379 78.8529L73.877 82.7021L86.1985 82.6222L90.3944 89.46L86.7914 96.7122L86.6003 97.0333C85.2082 99.0226 83.524 100.037 81.4478 100.135L73.0995 100.146L73.0702 103.268C73.068 103.622 72.7705 103.626 72.7662 103.626Z" fill="#2ECC71"/>
<path d="M74.0736 79.3778H74.0812H74.0736ZM72.8889 81.1926L72.8922 81.5323L72.9171 83.9013L74.85 83.8893L85.7164 83.8174L89.2217 89.532L86.002 96.0127L85.8218 96.3219L85.8131 96.3352C84.6262 97.994 83.1972 98.8467 81.4478 98.9413L74.0638 98.9493L72.1418 98.952L72.1223 100.944L66.025 91.7051L72.8889 81.1926ZM73.5317 77.2993C73.1788 77.2993 72.8205 77.4792 72.5566 77.8842L64.1606 90.7325C63.7881 91.3027 63.7903 92.1142 64.1649 92.6818L71.7943 104.242C72.0582 104.641 72.4154 104.82 72.7673 104.82C73.4112 104.82 74.0367 104.222 74.0443 103.281L74.0627 101.334L81.4869 101.325C83.878 101.212 85.8087 99.9953 87.3377 97.8155C87.4321 97.6556 87.5288 97.4917 87.6233 97.3291L91.5694 89.3868L86.6818 81.4191L74.8381 81.4977L74.8109 78.8316C74.8 77.8962 74.1746 77.2993 73.5317 77.2993Z" fill="#472B29"/>
<path d="M89.0935 92.2554C89.087 89.7225 88.6971 87.1883 87.3072 84.265L77.2878 63.188C77.2052 63.0161 77.2541 62.7962 77.3931 62.695L90.5149 53.303C90.5616 53.2683 90.6105 53.2537 90.6604 53.2537C90.7006 53.2537 90.8363 53.267 90.9145 53.4322L97.8055 67.9233C98.8816 70.191 98.8512 72.9824 97.7219 75.2075L89.0935 92.2554Z" fill="#2ECC71"/>
<path d="M91.0046 54.3342H91.0112H91.0046ZM90.4183 54.7539L96.9651 68.5255C97.8598 70.4082 97.8338 72.7279 96.8967 74.5785L89.7646 88.6659C89.4888 87.083 88.9892 85.4335 88.1488 83.6614L78.4703 63.3039L90.4183 54.7539ZM90.6615 52.0598C90.4443 52.0598 90.225 52.1278 90.0252 52.2717L76.9012 61.6637C76.2964 62.094 76.0933 63.0467 76.4451 63.7875L86.4657 84.8659C88.5658 89.2828 88.2009 92.767 87.836 96.9987L98.5483 75.839C99.8622 73.2422 99.9002 69.9631 98.6438 67.3223L91.7539 52.8286C91.5215 52.3356 91.098 52.0598 90.6615 52.0598Z" fill="#472B29"/>
<path d="M68.3727 50.0199C68.2033 49.9933 68.1414 49.8374 68.1197 49.7095C68.1023 49.6162 68.086 49.3884 68.2673 49.2538L70.5368 47.5843L64.6861 34.2205L67.2379 25.9197L74.1517 25.8557L74.5655 25.893C76.5776 26.2967 78.1663 27.5612 79.3325 29.741L83.1059 38.3495L85.3689 36.6827C85.4156 36.6481 85.4601 36.6308 85.5047 36.6308C85.5894 36.6308 85.6795 36.6947 85.7392 36.7973C85.8065 36.9106 85.8207 37.0438 85.7783 37.1877L81.7616 51.7667C81.7182 51.9239 81.6107 52.0279 81.4901 52.0279L68.3727 50.0199Z" fill="#2ECC71"/>
<path d="M74.0822 27.0509L74.2495 27.0668L74.4004 27.0775C76.1519 27.4506 77.4865 28.5085 78.4735 30.3152L81.7649 37.8139L82.7302 40.0137L84.2874 38.8718L81.0123 50.7567L70.3457 49.1192L71.8334 48.0267L70.9549 46.0188L65.7524 34.1365L67.9133 27.1095L74.0822 27.0509ZM85.8673 37.71H85.8749H85.8673ZM74.143 24.6632L66.5625 24.7352L63.6187 34.311L69.2403 47.15L67.7678 48.2305C66.7189 49.0033 67.0468 51.0192 68.251 51.2031L81.3338 53.211C81.3848 53.2177 81.4369 53.223 81.4869 53.223C82.019 53.223 82.5022 52.798 82.6813 52.1478L86.6991 37.5714C87.0053 36.4575 86.3104 35.4396 85.5046 35.4396C85.2951 35.4396 85.0768 35.5102 84.8672 35.6634L83.4773 36.6854L80.1425 29.0894C78.8026 26.5819 76.9446 25.1669 74.6284 24.7072C74.4688 24.6925 74.3048 24.6765 74.143 24.6632Z" fill="#472B29"/>
<path d="M56.4931 54.602C56.4497 54.602 56.4062 54.5887 56.3661 54.5634L42.9478 45.5631C42.7936 45.4592 42.735 45.198 42.8218 44.9942L49.2285 29.7303C50.2308 27.3427 52.1767 25.8584 54.3061 25.8584L70.7518 25.877C68.9634 27.268 67.3824 29.0681 66.0695 32.1979L56.7472 54.4008C56.694 54.5261 56.5984 54.602 56.4931 54.602Z" fill="#2ECC71"/>
<path d="M54.3115 27.0509L67.9307 27.0682C66.9349 28.2447 66.0163 29.713 65.203 31.6503L56.2021 53.0898L43.9609 44.8809L50.094 30.2739C50.929 28.286 52.5426 27.0509 54.3061 27.0509H54.3115ZM54.3072 24.6632C51.8184 24.6632 49.5315 26.4006 48.3642 29.1813L41.9553 44.4465C41.6273 45.2273 41.8619 46.196 42.4808 46.6103L55.9002 55.6106C56.0891 55.7372 56.2922 55.7958 56.4931 55.7958C56.9459 55.7958 57.3846 55.4881 57.6115 54.9458L66.9328 32.7442C68.8852 28.0914 71.4913 26.5925 74.6143 24.6872L54.3148 24.6632C54.3115 24.6632 54.3094 24.6632 54.3072 24.6632Z" fill="#472B29"/>
<path d="M92.5792 85.3696C92.5781 85.3696 92.5749 85.3696 92.5738 85.3696C92.3805 85.3656 92.2296 85.1711 92.2317 84.9353C92.2654 82.4104 91.1089 79.8349 90.2663 77.9535L87.5711 71.9524C87.4799 71.7459 87.5407 71.4861 87.7079 71.3729C87.8773 71.2583 88.0869 71.3329 88.1803 71.5394L90.8755 77.5432C91.7583 79.5058 92.9647 82.1972 92.9289 84.9499C92.9245 85.1817 92.7682 85.3696 92.5792 85.3696Z" fill="#472B29"/>
<path d="M86.7622 69.722C86.6405 69.722 86.5211 69.6407 86.4581 69.4995L83.2146 62.2673C83.1223 62.0621 83.1831 61.8036 83.3514 61.689C83.5186 61.5731 83.7315 61.6491 83.8227 61.8582L87.0673 69.0905C87.1585 69.2956 87.0977 69.5541 86.9294 69.6687C86.8762 69.7047 86.8197 69.722 86.7622 69.722Z" fill="#472B29"/>
<path d="M42.2365 89.091C40.4817 89.091 38.2882 88.9817 36.5334 87.7653C36.3662 87.6493 36.3065 87.3882 36.4009 87.1843C36.4943 86.9778 36.7072 86.9085 36.8755 87.0218C38.6704 88.2649 41.0724 88.2503 42.8196 88.2343L47.4357 88.1916C47.4357 88.1916 47.4368 88.1916 47.4389 88.1916C47.629 88.1916 47.7843 88.3795 47.7864 88.614C47.7875 88.8498 47.6333 89.043 47.4411 89.0444L42.8239 89.087C42.635 89.0883 42.4395 89.091 42.2365 89.091Z" fill="#472B29"/>
<path d="M50.2199 89.091C50.0277 89.091 49.8735 88.9004 49.8724 88.6659C49.8714 88.4301 50.0256 88.2396 50.2188 88.2382L57.1685 88.1916H57.1696C57.3618 88.1916 57.516 88.3808 57.5171 88.6166C57.5181 88.8511 57.364 89.043 57.1707 89.0443L50.221 89.091H50.2199Z" fill="#472B29"/>
<path d="M56.568 38.2576C56.5148 38.2576 56.4605 38.2416 56.4106 38.2109C56.2379 38.1043 56.1706 37.8485 56.2575 37.638L58.4369 32.3697C59.2676 30.3712 60.4023 27.6358 62.282 26.1248C62.4405 25.9969 62.6566 26.0475 62.763 26.2474C62.8683 26.4433 62.8227 26.7097 62.6631 26.8377C60.9376 28.2247 59.8507 30.8455 59.0558 32.7588L56.8775 38.0257C56.8167 38.1723 56.694 38.2576 56.568 38.2576Z" fill="#472B29"/>
<path d="M52.4982 47.9174C52.4439 47.9174 52.3907 47.9014 52.3407 47.8708C52.1702 47.7642 52.1018 47.5084 52.1898 47.2979L55.063 40.3761C55.1499 40.1642 55.3616 40.0816 55.53 40.1896C55.7004 40.2975 55.7689 40.5533 55.6809 40.7625L52.8076 47.6856C52.7458 47.8321 52.623 47.9174 52.4982 47.9174Z" fill="#472B29"/>
<path d="M108.15 93.3706C110.767 93.3706 113.038 93.3706 113.07 93.3706C116.003 93.3706 118.381 90.5166 118.381 86.9938C118.381 83.9213 116.571 81.3578 114.162 80.7529C114.19 80.4824 114.21 80.2119 114.21 79.9335C114.21 76.2854 111.746 73.3288 108.71 73.3288C106.916 73.3288 105.327 74.3641 104.324 75.9603C104.067 71.8991 101.047 68.7667 97.5134 69.2863C94.9301 69.6674 92.792 72.0644 92.3164 75.1382C92.1644 76.1242 92.1807 77.0808 92.3316 77.9775C91.6399 77.0821 90.6528 76.5172 89.555 76.5172C87.545 76.5172 85.9032 78.3972 85.7739 80.7715C84.8607 80.529 83.8693 80.5437 82.8236 81.0154C80.8245 81.9161 79.402 84.1758 79.3184 86.738C79.2 90.3767 81.6215 93.3706 84.6251 93.3706C84.8531 93.3706 85.6545 93.3706 85.8402 93.3706H96.8673M99.1466 93.3706H99.6472Z" fill="#FDFCEF"/>
<path d="M113.07 94.226H108.15C107.766 94.226 107.455 93.8436 107.455 93.3732C107.455 92.9016 107.766 92.5205 108.15 92.5205H113.07C115.615 92.5205 117.686 90.0423 117.686 86.9964C117.686 84.3969 116.146 82.1212 114.022 81.5896C113.666 81.499 113.426 81.0886 113.472 80.6449C113.497 80.4117 113.513 80.1759 113.513 79.9334C113.513 76.761 111.357 74.1815 108.708 74.1815C107.191 74.1815 105.792 75.0182 104.872 76.4825C104.697 76.761 104.398 76.8756 104.123 76.7783C103.847 76.6757 103.652 76.3799 103.629 76.0282C103.519 74.2881 102.844 72.7132 101.727 71.5873C100.575 70.4281 99.1064 69.9178 97.5949 70.1324C95.3069 70.4681 93.4164 72.5919 92.9983 75.2954C92.8669 76.1388 92.8713 76.9835 93.0103 77.8056C93.0732 78.1787 92.9266 78.5571 92.6519 78.7343C92.3783 78.9088 92.0406 78.8422 91.8266 78.5637C91.2316 77.7949 90.4237 77.3699 89.5539 77.3699C87.9283 77.3699 86.5721 78.8902 86.4667 80.8274C86.4526 81.0766 86.3527 81.3018 86.1909 81.451C86.0302 81.6002 85.8239 81.6562 85.6273 81.6029C84.7391 81.3684 83.8997 81.4364 83.0614 81.8161C81.3066 82.6062 80.0817 84.5981 80.0101 86.7712C79.9612 88.2649 80.4032 89.6852 81.2545 90.7724C82.1373 91.8969 83.334 92.5178 84.6218 92.5178H96.863C97.2474 92.5178 97.5579 92.9002 97.5579 93.3706C97.5579 93.8422 97.2474 94.2233 96.863 94.2233H84.6218C82.9745 94.2233 81.3826 93.3972 80.2522 91.9542C79.1359 90.5286 78.5582 88.6646 78.6223 86.7046C78.7146 83.848 80.3065 81.2405 82.5814 80.2132C83.4295 79.8295 84.3047 79.6949 85.1952 79.7975C85.6729 77.4165 87.4592 75.6631 89.5517 75.6631C90.2369 75.6631 90.9102 75.8563 91.5172 76.2147C91.5302 75.8017 91.5693 75.3886 91.6334 74.9743C92.1622 71.5474 94.5457 68.8599 97.4287 68.4376C99.3258 68.1524 101.161 68.8093 102.607 70.2643C103.648 71.3089 104.384 72.6666 104.756 74.1895C105.856 73.0849 107.239 72.472 108.707 72.472C112.123 72.472 114.902 75.819 114.902 79.9308C114.902 79.988 114.902 80.0467 114.901 80.1066C117.353 81.0526 119.075 83.8373 119.075 86.9924C119.076 90.9816 116.382 94.226 113.07 94.226ZM99.6472 94.226H99.1466C98.7633 94.226 98.4516 93.8436 98.4516 93.3732C98.4516 92.9016 98.7633 92.5205 99.1466 92.5205H99.6472C100.03 92.5205 100.342 92.9016 100.342 93.3732C100.342 93.8436 100.03 94.226 99.6472 94.226Z" fill="#472B29"/>
<path d="M110.697 84.3277C110.672 84.3277 110.647 84.3237 110.621 84.317C110.433 84.265 110.315 84.0372 110.358 83.8067C110.409 83.5269 110.489 83.2524 110.594 82.9899C111.433 80.9021 113.753 80.1293 115.768 81.2725C115.942 81.3711 116.018 81.6242 115.938 81.8374C115.856 82.0519 115.65 82.1425 115.476 82.0453C113.806 81.0966 111.894 81.6909 111.218 83.3657C111.138 83.5669 111.077 83.7774 111.038 83.9906C111 84.1917 110.857 84.3277 110.697 84.3277Z" fill="#472B29"/>
<path d="M103.527 94.226H101.988C101.604 94.226 101.293 93.8436 101.293 93.3733C101.293 92.9016 101.604 92.5206 101.988 92.5206H103.527C103.91 92.5206 104.222 92.9016 104.222 93.3733C104.222 93.8436 103.912 94.226 103.527 94.226Z" fill="#472B29"/>
</svg>
