<svg width="106" height="19" viewBox="0 0 106 19" fill="none" xmlns="http://www.w3.org/2000/svg">
<path d="M5.76172 18H2.04688L2.07031 15.2578H5.76172C6.68359 15.2578 7.46094 15.0508 8.09375 14.6367C8.72656 14.2148 9.20312 13.6016 9.52344 12.7969C9.85156 11.9922 10.0156 11.0195 10.0156 9.87891V9.04688C10.0156 8.17188 9.92188 7.40234 9.73438 6.73828C9.55469 6.07422 9.28516 5.51562 8.92578 5.0625C8.56641 4.60938 8.125 4.26953 7.60156 4.04297C7.07812 3.80859 6.47656 3.69141 5.79688 3.69141H1.97656V0.9375H5.79688C6.9375 0.9375 7.98047 1.13281 8.92578 1.52344C9.87891 1.90625 10.7031 2.45703 11.3984 3.17578C12.0938 3.89453 12.6289 4.75391 13.0039 5.75391C13.3867 6.74609 13.5781 7.85156 13.5781 9.07031V9.87891C13.5781 11.0898 13.3867 12.1953 13.0039 13.1953C12.6289 14.1953 12.0938 15.0547 11.3984 15.7734C10.7109 16.4844 9.88672 17.0352 8.92578 17.4258C7.97266 17.8086 6.91797 18 5.76172 18ZM4.03906 0.9375V18H0.523438V0.9375H4.03906ZM15.3828 11.7891V11.543C15.3828 10.6133 15.5156 9.75781 15.7812 8.97656C16.0469 8.1875 16.4336 7.50391 16.9414 6.92578C17.4492 6.34766 18.0742 5.89844 18.8164 5.57812C19.5586 5.25 20.4102 5.08594 21.3711 5.08594C22.332 5.08594 23.1875 5.25 23.9375 5.57812C24.6875 5.89844 25.3164 6.34766 25.8242 6.92578C26.3398 7.50391 26.7305 8.1875 26.9961 8.97656C27.2617 9.75781 27.3945 10.6133 27.3945 11.543V11.7891C27.3945 12.7109 27.2617 13.5664 26.9961 14.3555C26.7305 15.1367 26.3398 15.8203 25.8242 16.4062C25.3164 16.9844 24.6914 17.4336 23.9492 17.7539C23.207 18.0742 22.3555 18.2344 21.3945 18.2344C20.4336 18.2344 19.5781 18.0742 18.8281 17.7539C18.0859 17.4336 17.457 16.9844 16.9414 16.4062C16.4336 15.8203 16.0469 15.1367 15.7812 14.3555C15.5156 13.5664 15.3828 12.7109 15.3828 11.7891ZM18.7578 11.543V11.7891C18.7578 12.3203 18.8047 12.8164 18.8984 13.2773C18.9922 13.7383 19.1406 14.1445 19.3438 14.4961C19.5547 14.8398 19.8281 15.1094 20.1641 15.3047C20.5 15.5 20.9102 15.5977 21.3945 15.5977C21.8633 15.5977 22.2656 15.5 22.6016 15.3047C22.9375 15.1094 23.207 14.8398 23.4102 14.4961C23.6133 14.1445 23.7617 13.7383 23.8555 13.2773C23.957 12.8164 24.0078 12.3203 24.0078 11.7891V11.543C24.0078 11.0273 23.957 10.543 23.8555 10.0898C23.7617 9.62891 23.6094 9.22266 23.3984 8.87109C23.1953 8.51172 22.9258 8.23047 22.5898 8.02734C22.2539 7.82422 21.8477 7.72266 21.3711 7.72266C20.8945 7.72266 20.4883 7.82422 20.1523 8.02734C19.8242 8.23047 19.5547 8.51172 19.3438 8.87109C19.1406 9.22266 18.9922 9.62891 18.8984 10.0898C18.8047 10.543 18.7578 11.0273 18.7578 11.543ZM34.707 15.5977C35.1211 15.5977 35.4883 15.5195 35.8086 15.3633C36.1289 15.1992 36.3789 14.9727 36.5586 14.6836C36.7461 14.3867 36.8438 14.0391 36.8516 13.6406H40.0273C40.0195 14.5312 39.7812 15.3242 39.3125 16.0195C38.8438 16.707 38.2148 17.25 37.4258 17.6484C36.6367 18.0391 35.7539 18.2344 34.7773 18.2344C33.793 18.2344 32.9336 18.0703 32.1992 17.7422C31.4727 17.4141 30.8672 16.9609 30.3828 16.3828C29.8984 15.7969 29.5352 15.1172 29.293 14.3438C29.0508 13.5625 28.9297 12.7266 28.9297 11.8359V11.4961C28.9297 10.5977 29.0508 9.76172 29.293 8.98828C29.5352 8.20703 29.8984 7.52734 30.3828 6.94922C30.8672 6.36328 31.4727 5.90625 32.1992 5.57812C32.9258 5.25 33.7773 5.08594 34.7539 5.08594C35.793 5.08594 36.7031 5.28516 37.4844 5.68359C38.2734 6.08203 38.8906 6.65234 39.3359 7.39453C39.7891 8.12891 40.0195 9 40.0273 10.0078H36.8516C36.8438 9.58594 36.7539 9.20312 36.582 8.85938C36.418 8.51562 36.1758 8.24219 35.8555 8.03906C35.543 7.82812 35.1562 7.72266 34.6953 7.72266C34.2031 7.72266 33.8008 7.82812 33.4883 8.03906C33.1758 8.24219 32.9336 8.52344 32.7617 8.88281C32.5898 9.23438 32.4688 9.63672 32.3984 10.0898C32.3359 10.5352 32.3047 11.0039 32.3047 11.4961V11.8359C32.3047 12.3281 32.3359 12.8008 32.3984 13.2539C32.4609 13.707 32.5781 14.1094 32.75 14.4609C32.9297 14.8125 33.1758 15.0898 33.4883 15.293C33.8008 15.4961 34.207 15.5977 34.707 15.5977ZM48.3477 14.4375L52.3672 0.9375H56.2812L50.3398 18H47.7617L48.3477 14.4375ZM44.6445 0.9375L48.6523 14.4375L49.2617 18H46.6602L40.7539 0.9375H44.6445ZM61.2266 5.32031V18H57.8398V5.32031H61.2266ZM57.6289 2.01562C57.6289 1.52344 57.8008 1.11719 58.1445 0.796875C58.4883 0.476563 58.9492 0.316406 59.5273 0.316406C60.0977 0.316406 60.5547 0.476563 60.8984 0.796875C61.25 1.11719 61.4258 1.52344 61.4258 2.01562C61.4258 2.50781 61.25 2.91406 60.8984 3.23438C60.5547 3.55469 60.0977 3.71484 59.5273 3.71484C58.9492 3.71484 58.4883 3.55469 58.1445 3.23438C57.8008 2.91406 57.6289 2.50781 57.6289 2.01562ZM67.3906 8.08594V18H64.0156V5.32031H67.1914L67.3906 8.08594ZM71.2109 5.23828L71.1523 8.36719C70.9883 8.34375 70.7891 8.32422 70.5547 8.30859C70.3281 8.28516 70.1211 8.27344 69.9336 8.27344C69.457 8.27344 69.043 8.33594 68.6914 8.46094C68.3477 8.57812 68.0586 8.75391 67.8242 8.98828C67.5977 9.22266 67.4258 9.50781 67.3086 9.84375C67.1992 10.1797 67.1367 10.5625 67.1211 10.9922L66.4414 10.7812C66.4414 9.96094 66.5234 9.20703 66.6875 8.51953C66.8516 7.82422 67.0898 7.21875 67.4023 6.70312C67.7227 6.1875 68.1133 5.78906 68.5742 5.50781C69.0352 5.22656 69.5625 5.08594 70.1562 5.08594C70.3438 5.08594 70.5352 5.10156 70.7305 5.13281C70.9258 5.15625 71.0859 5.19141 71.2109 5.23828ZM79.6016 5.32031V7.71094H72.2188V5.32031H79.6016ZM74.0469 2.19141H77.4219V14.1797C77.4219 14.5469 77.4688 14.8281 77.5625 15.0234C77.6641 15.2188 77.8125 15.3555 78.0078 15.4336C78.2031 15.5039 78.4492 15.5391 78.7461 15.5391C78.957 15.5391 79.1445 15.5312 79.3086 15.5156C79.4805 15.4922 79.625 15.4688 79.7422 15.4453L79.7539 17.9297C79.4648 18.0234 79.1523 18.0977 78.8164 18.1523C78.4805 18.207 78.1094 18.2344 77.7031 18.2344C76.9609 18.2344 76.3125 18.1133 75.7578 17.8711C75.2109 17.6211 74.7891 17.2227 74.4922 16.6758C74.1953 16.1289 74.0469 15.4102 74.0469 14.5195V2.19141ZM89.0234 14.9648V5.32031H92.3984V18H89.2227L89.0234 14.9648ZM89.3984 12.3633L90.3945 12.3398C90.3945 13.1836 90.2969 13.9688 90.1016 14.6953C89.9062 15.4141 89.6133 16.0391 89.2227 16.5703C88.832 17.0938 88.3398 17.5039 87.7461 17.8008C87.1523 18.0898 86.4531 18.2344 85.6484 18.2344C85.0312 18.2344 84.4609 18.1484 83.9375 17.9766C83.4219 17.7969 82.9766 17.5195 82.6016 17.1445C82.2344 16.7617 81.9453 16.2734 81.7344 15.6797C81.5312 15.0781 81.4297 14.3555 81.4297 13.5117V5.32031H84.8047V13.5352C84.8047 13.9102 84.8477 14.2266 84.9336 14.4844C85.0273 14.7422 85.1562 14.9531 85.3203 15.1172C85.4844 15.2812 85.6758 15.3984 85.8945 15.4688C86.1211 15.5391 86.3711 15.5742 86.6445 15.5742C87.3398 15.5742 87.8867 15.4336 88.2852 15.1523C88.6914 14.8711 88.9766 14.4883 89.1406 14.0039C89.3125 13.5117 89.3984 12.9648 89.3984 12.3633ZM101.832 14.4961C101.832 14.2539 101.762 14.0352 101.621 13.8398C101.48 13.6445 101.219 13.4648 100.836 13.3008C100.461 13.1289 99.918 12.9727 99.207 12.832C98.5664 12.6914 97.9688 12.5156 97.4141 12.3047C96.8672 12.0859 96.3906 11.8242 95.9844 11.5195C95.5859 11.2148 95.2734 10.8555 95.0469 10.4414C94.8203 10.0195 94.707 9.53906 94.707 9C94.707 8.46875 94.8203 7.96875 95.0469 7.5C95.2812 7.03125 95.6133 6.61719 96.043 6.25781C96.4805 5.89062 97.0117 5.60547 97.6367 5.40234C98.2695 5.19141 98.9805 5.08594 99.7695 5.08594C100.871 5.08594 101.816 5.26172 102.605 5.61328C103.402 5.96484 104.012 6.44922 104.434 7.06641C104.863 7.67578 105.078 8.37109 105.078 9.15234H101.703C101.703 8.82422 101.633 8.53125 101.492 8.27344C101.359 8.00781 101.148 7.80078 100.859 7.65234C100.578 7.49609 100.211 7.41797 99.7578 7.41797C99.3828 7.41797 99.0586 7.48438 98.7852 7.61719C98.5117 7.74219 98.3008 7.91406 98.1523 8.13281C98.0117 8.34375 97.9414 8.57812 97.9414 8.83594C97.9414 9.03125 97.9805 9.20703 98.0586 9.36328C98.1445 9.51172 98.2812 9.64844 98.4688 9.77344C98.6562 9.89844 98.8984 10.0156 99.1953 10.125C99.5 10.2266 99.875 10.3203 100.32 10.4062C101.234 10.5938 102.051 10.8398 102.77 11.1445C103.488 11.4414 104.059 11.8477 104.48 12.3633C104.902 12.8711 105.113 13.5391 105.113 14.3672C105.113 14.9297 104.988 15.4453 104.738 15.9141C104.488 16.3828 104.129 16.793 103.66 17.1445C103.191 17.4883 102.629 17.7578 101.973 17.9531C101.324 18.1406 100.594 18.2344 99.7812 18.2344C98.6016 18.2344 97.6016 18.0234 96.7812 17.6016C95.9688 17.1797 95.3516 16.6445 94.9297 15.9961C94.5156 15.3398 94.3086 14.668 94.3086 13.9805H97.5078C97.5234 14.4414 97.6406 14.8125 97.8594 15.0938C98.0859 15.375 98.3711 15.5781 98.7148 15.7031C99.0664 15.8281 99.4453 15.8906 99.8516 15.8906C100.289 15.8906 100.652 15.832 100.941 15.7148C101.23 15.5898 101.449 15.4258 101.598 15.2227C101.754 15.0117 101.832 14.7695 101.832 14.4961Z" fill="#E9E9FF"/>
</svg>
